<svg xmlns="http://www.w3.org/2000/svg" viewBox="0 0 500 500">
  <!-- Blue Regulatory Circle (Safety) -->
  <circle cx="250" cy="250" r="230" fill="#fff" stroke="#003399" stroke-width="20"/>
  <circle cx="250" cy="250" r="200" fill="#003399"/>
  
  <!-- Person Seatbelt Icon -->
  <g transform="translate(130,100) scale(0.5)" fill="white">
     <path d="M256 0c-44.18 0-80 35.82-80 80 0 35.45 23.08 65.57 55.06 76.09L156.94 440c-2.8 11.2 5.6 24 18.26 24h161.6c12.66 0 21.06-12.8 18.26-24l-74.12-283.91C312.92 145.57 336 115.45 336 80c0-44.18-35.82-80-80-80z"/>
     <!-- Belt strap -->
     <path d="M100 400 L400 100" stroke="white" stroke-width="40" stroke-linecap="round"/> 
  </g>
  <!-- Simplified Seatbelt Graphic -->
  <path d="M170,170 C170,140 200,120 250,120 S330,140 330,170 L330,400 L170,400 Z" fill="white" opacity="0.9"/>
  <circle cx="250" cy="90" r="50" fill="white"/>
  <line x1="150" y1="400" x2="350" y2="150" stroke="#000" stroke-width="30"/>
</svg>
